<?xml version="1.0" encoding="UTF-8"?><svg id="Layer_1" xmlns="http://www.w3.org/2000/svg" viewBox="0 0 87.27 90.9"><defs><style>.cls-1,.cls-2{fill:#fff;}.cls-1,.cls-2,.cls-3,.cls-4,.cls-5,.cls-6{fill-rule:evenodd;}.cls-2{stroke:#757b7f;stroke-linecap:round;stroke-linejoin:round;stroke-width:.25px;}.cls-3{fill:#2a409a;}.cls-5{fill:#149a4c;}.cls-6{fill:#df332a;}</style></defs><path class="cls-2" d="M13.61,65.22c5.55,8.6,13.23,13.34,22.55,15.15,5.58,1.08,9.63,1.06,15.21-.05,9.21-1.84,16.78-6.58,22.29-15.1.65-.98.71-1.47,1.03-1.47.21,0,.52.19,1.14.57,1.95,1.17,3.98,2.22,5.85,3.53,1.43,1.01,1.68.7.52,2.47-6.73,10.28-15.65,16.57-26.81,19.14-7.6,1.74-15.78,1.76-23.39.03-11.22-2.55-20.17-8.84-26.95-19.17-1.16-1.77-.9-1.46.54-2.47,1.85-1.31,3.9-2.36,5.85-3.53.62-.38.92-.57,1.12-.57.32,0,.4.49,1.05,1.47h0ZM87.14,55.09c-1.58,4.15-3.83,8.38-6.4,11.96-1.74-1.03-3.47-2.06-5.17-3.04-.68-.4-1.11-.67-1.81-.36l-2.69,1.14v.02c.1-.24.49-.55,1.06-1.32,2.88-3.88,5.77-9.93,6.54-15.46.62,3.45,1.7,7.43,1.74,10.82,1.17-.35,3.83-.63,6.72-3.76h0ZM.12,55.09c1.58,4.15,3.82,8.38,6.39,11.96,1.74-1.03,3.47-2.06,5.17-3.04.68-.4,1.11-.67,1.81-.36l2.69,1.14.02.02c-.11-.24-.51-.55-1.06-1.32-2.9-3.88-5.78-9.93-6.56-15.46-.62,3.45-1.68,7.43-1.74,10.82-1.16-.35-3.83-.63-6.7-3.76H.12Z"/><path class="cls-4" d="M74.29,63.62c-.09,0-.19.02-.3.05-.86.3-1.92.9-2.93,1.27.02.09.09.17.24.3.17.11.43.27.79.49.27.16.49.3.76.46.16-.19.3-.44.49-.7.38-.52.73-1.19,1.08-1.65.05-.06.11-.09.22-.13.02,0,.05-.02.08-.02.02,0-.05-.02-.13-.05-.09-.02-.21-.03-.3-.03h0ZM12.97,63.62c.08,0,.19.02.28.05.86.3,1.92.9,2.93,1.27-.02.09-.09.17-.24.3-.16.11-.41.27-.78.49-.27.16-.51.3-.78.46-.16-.19-.3-.44-.49-.7-.38-.52-.71-1.19-1.06-1.65-.05-.06-.13-.09-.22-.13-.03,0-.06-.02-.09-.02,0,0,.06-.02.13-.05.11-.02.21-.03.32-.03h0Z"/><path class="cls-3" d="M15.95,65.23c.22-.17.3-.27.24-.41.05.11-.06.25-.24.41h0Z"/><path class="cls-1" d="M16.65,9.83v43.7c0,1.08,1.06,3.55,1.49,4.48,1.09,2.41,3.33,5.48,5.2,7.03,4.1,3.41,6.27,4.55,11.6,6.77,2.19.92,4.21,1.55,6.56,2.58.93.41,1.28.82,1.87,1.24,2.12-1.52,4.55-2.12,7.16-3.12,3.82-1.44,7.11-2.82,10.38-5.09,1.43-.98,1.62-1.17,2.87-2.28,2.65-2.41,4.93-5.62,6.08-9.38.46-1.49.27-3.3.25-4.93l-.14-36.08c-.02-1.49.11-3.76-.02-5.15-.05-.41-.25-.49-.54-.71l-6.58-5.02c-.48-.36-1-.78-1.47-1.11-1.43-.95-.55-.73-3.99-.19-9.13,1.44-19.36,1.6-28.28-.4-1.85-.41-1.25-.48-3.49,1.06l-8.32,5.86c-.27.21-.63.33-.63.73h0Z"/><path class="cls-5" d="M30.61,32.83l-5.18,19.38,15.61.09c.49-.98,1.28-1.36,2.57-1.38.6,0,1.2.13,1.68.36.71.36.71.79,1.09.92l15.46-.09-5.18-19.33c-1.87-.51-4.39-.92-6.42-1.06-1.77-.13-3.47-.08-5.2.33-.36.08-1.22.4-1.47.43-.22.02-2.41-.54-3.03-.62-1.19-.14-2.33-.21-3.55-.14-2.44.13-4.18.67-6.39,1.11h0Z"/><path class="cls-5" d="M53.23,25.61c.25.17.54.3.78.43.24.14.49.27.7.38,2.04,1.11,4.64,3.2,5.96,4.99l.98,1.27c.25.35.59.87.82,1.3,4.28,7.67,2.93,16.65-3.14,22.61-8.25,8.06-21.91,8.62-30.74.84-1.76-1.55-1.31-1.27-2.65-2.79-1.22-1.38-2.5-3.99-3.06-5.67-2.44-7.4.24-15.23,5.66-19.96l3.15-2.28c.35-.21.76-.43,1.32-.73-.35.14-.62.27-.92.4l-.86.41c-.59.27-1.2.63-1.71.95-1.12.71-2.16,1.41-3.03,2.19-1.81,1.65-1.08,1-2.61,2.61-4.44,4.72-6.77,12.91-4.53,19.95,1.55,4.91,4.71,9.3,8.87,12.09,4.33,2.92,9.47,4.91,16.1,4.75,10.73-.25,21.34-7.07,23.86-17.95,1.71-7.48-.55-14.21-5.48-19.57-1.7-1.82-3.61-3.33-5.86-4.58-1.08-.59-2.66-1.39-3.61-1.63h0Z"/><path class="cls-4" d="M37.79,16.85l.78.51-.73.94c-.35-.16-.22-.06-.49-.35-.21-.22-.19-.21-.33-.51l.78-.59ZM25.33,23.75l.3.7.94-.4-.3-.7-.93.4ZM45.6,16.18l1,.06v-.82h-1v.76ZM47.12,16.2l1,.03v-.81l-1-.02v.79ZM19.93,20.49l.35.74.9-.41-.35-.73-.9.4ZM26.73,23.17l.19.76,1-.24-.22-.79-.97.27ZM29.33,22.39l.24.78.98-.3-.25-.78-.97.3ZM21.45,19.76l.32.73c.46-.13.6-.22.93-.49l-.35-.65-.9.41ZM54.57,23.72c1.39-.33,1.13-.38,1.65-1.5.28-.6.74-1.55.93-2.2-.57.22-.52.28-.76.79-.16.33-.35.74-.54,1.05-.22.33-.43.59-.63.87-.24.33-.48.57-.65,1h0ZM63.11,25.48l.44.29c.41-.41,3.25-6.84,3.77-7.94l-.36-.21-3.85,7.86ZM42.95,20.32h.57c.17-.51.19-8.41.14-9.49l-.46-.02c-.25.41-.24,8.4-.25,9.51h0ZM62.08,23.22l-.76-.35c.25-.54.63-.92,1.46-.89l-.7,1.24ZM60.79,22.52l-1.82-.73c.13-.51.6-1.19.48-1.63-.24-.08-.3-.21-.52.21-.14.27-.22.7-.49,1.08l-.75-.09-.55,1.38c.4.27,2.06.82,2.6,1.05l2.42,1.19,4.04-7.68-.52-.16c-.38.24-1.71,2.82-1.92,3.18-.76,1.36-.22.57-1.47,1.06-.84.33-1.08.59-1.49,1.16h0ZM22.73,21.47c.27.24.43.54.6.94-.27.28-.63.44-1,.62-.17-.3-.43-.67-.54-1.06l.93-.49ZM29.44,18.26l.35,1.82-1.55.49c-.22-.46-.4-1.47-.68-1.84l-.65.19.44,1.92-3.23,1.25c-.11-.36-.68-1.46-.93-1.68l-2.65,1.22,1.82,3.22,1.92-1.03c1.77-.87,4.85-1.96,6.73-2.31l-.73-3.34-.84.09ZM46.37,17.5c.32-.09.9-.02,1.17.13.14.14.05.89.05,1.08l-1.27-.06.05-1.14ZM45.28,20.44c1.73.08,3.39.32,5.09.57,1.66.25,3.17.86,4.66,1.11.27-.51.68-2.73.73-3.42l-.81-.16-.24,1.7-.92-.21.21-1.9-.68-.13c-.21.43-.24,1.24-.29,1.79l-.67-.09c-.17-.46.05-1.31.09-1.98l-.84-.19-.21,1.95-3.12-.57.13-1.92-2.99-.27-.14,3.72ZM41.18,18.57l-2.69.03c.27-.63.82-1.01,1.12-1.62-.36-.4-1.54-1.16-2.01-1.46-.55.57-1.11,1.17-1.65,1.77.17.38.59.7.89,1.05.25.29.25.09.19.36l-3.68.51c-.09-.51-.14-1.36-.43-1.65l-.59.35c.22,2.44.44.79.43,4.86,1.01-.33.79-.68.84-1.76,3.23-.49,4.01-.71,7.26-.76h.54c.13-.02.17-.02.28-.05.35-.09-.02.09.21-.11.06-.13.27-8.22.21-8.9-.03-.24.09-.52-.36-.44-.35.06-.28.24-.32,1.22l-.24,6.59Z"/><path class="cls-6" d="M43.63,78.15c-4.77-3.56-10.47-4.5-15.91-7.22-5.5-2.77-8.86-6.31-10.79-10.62-1.77-3.91-2.38-8.48-2.38-13.72l.1-37.93L25.52.18c.35-.24.54-.19.9-.13C39.47,2.36,47.78,2.36,60.82.05c.36-.06.57-.11.9.13l10.87,8.48.09,37.93c0,5.24-.6,9.81-2.36,13.72-1.95,4.31-5.29,7.84-10.79,10.62-5.44,2.72-11.14,3.66-15.91,7.22h0ZM43.63,75.12c4.33-3.17,9.47-4.04,14.37-6.53,7.46-3.8,10.62-9.11,11.66-16.07.3-2.01.43-4.18.43-6.48-.02-11.93-.05-24.04-.08-35.97l-9.41-7.16c-.3-.21-.49-.17-.82-.11-11.6,2.08-20.69,2.08-32.31,0-.33-.06-.51-.09-.82.11l-9.4,7.16c-.03,11.93-.06,24.04-.09,35.97,0,2.3.13,4.47.43,6.48,1.05,6.96,4.21,12.26,11.66,16.07,4.91,2.49,10.05,3.36,14.39,6.53h0Z"/><path class="cls-4" d="M25.57,82.16c.02-.11-.02-.21-.13-.25-.03-.02-.06-.02-.08-.02h-.06s-.03.02-.05.02c0,.02-.02.02-.02.03-.05.1.09.16.16.19.05.02.11.03.17.03h0ZM25.44,82.82c-.14.05-.3.05-.44-.02-.06-.03-.13-.08-.19-.14-.05-.05-.08-.11-.11-.19-.03-.06-.03-.14-.03-.22.02-.08.03-.14.06-.22.06-.13.13-.25.22-.36.08-.11.19-.21.3-.3.19-.16.46-.28.71-.17.22.11.25.38.24.6-.02.32-.11.65-.25.94-.38.84-.95,1.5-1.65,1.57-.43.05-.9-.14-1.41-.68l-.06-.08c-.49-.7-.13-.4.21-.16.11.09.22.17.28.21.62.27,1.79-.22,2.12-.76h0ZM72.66,77.07c-.11.05-.32.17-.36.21-.28.16-.6.22-.81-.06-.14-.19-.21-.41-.24-.65-.05-.57.33-1.05.76-1.39.08-.06.17-.16.22-.27.03-.1.03-.24.02-.35l-.02-.08.14-.05.05.03c.08.08.17.13.3.11.17-.03.6-.4.73-.52.11-.09.38-.36.41-.51.03-.11.02-.25,0-.36l-.02-.06.13-.06.05.03c.14.09.28.11.43.02.16-.08.41-.43.46-.54-.08-.06-.49-.11-.63-.21-.11-.06-.3-.67-.35-.79l-.06-.19.19.08c.32.13.78.33,1,.59.21.21.44.52.49.82.06.43-.43,1.06-.82,1.16-.11.02-.21,0-.32-.03,0,.6-.9,1.41-1.36,1.46-.11.02-.21,0-.3-.05.05.44-.24.66-.59.93-.06.03-.36.27-.38.33.03,0,.09-.02.11-.02.21-.06.52-.16.75-.16.17,0,.33.09.43.24.24.32.11.74-.05,1.06-.17.4-.44.75-.79,1-.3.21-.63.35-1,.32-.36-.03-.63-.24-.84-.51-.27-.4-.43-.9-.54-1.36-.06-.3.02-.4.11-.35.11.05.17.3.22.44.05.21.13.41.24.57.14.21.33.32.59.33.3,0,.59-.14.82-.32.24-.16.44-.35.63-.57.03-.03.16-.17.21-.27h0ZM74.55,75.26l.21.68-.71.08-.21-.67.71-.1ZM70.88,74.28l.17.66-.73.03-.14-.68.7-.02ZM60.32,81.57l-.06.7-.7-.21.09-.68.67.19ZM62.12,82.96c-.05.22-.21.44-.4.54-.36.17-.71.32-1.09.46-.27.13-.97.41-1.25.4-.19,0-.38-.02-.52-.16-.19-.17-.35-.51-.46-.74-.17-.36-.36-.76-.59-1.11-.06-.11-.17-.27-.22-.4-.05-.11-.05-.22-.03-.35.02-.13.08-.28.13-.4l.06-.19.1.17c.19.32.35.67.52,1,.09.19.19.38.3.57.08.17.19.43.36.54.1.06.21.08.33.08.38.02,2.19-.7,2.41-1,.06-.09.09-.24.11-.35v-.06l.16-.02.03.05c.05.08.13.16.22.17.17.03,1.35-.59,1.55-.71.11-.05.28-.19.33-.28.06-.09.08-.24.09-.35v-.06l.16-.05.03.06c.05.06.11.13.21.16.19.05.95-.46,1.11-.6.14-.14.19-.32.14-.52l-.1-.48c-.05-.24-.05-.54.19-.68.17-.11.38-.05.54.05.27.14.49.35.65.62.09.14.16.32.16.49,0,.16-.06.3-.21.4-.16.09-.49.14-.71.16.03.17,0,.36-.1.52-.05.13-.16.24-.27.32-.27.22-.62.41-.94.59-.19.11-.4.06-.55-.05-.05.22-.21.44-.38.55-.32.19-1.28.73-1.6.78-.17.03-.35-.02-.49-.11h0ZM66.67,79.51s-.02-.02-.03-.02c-.03-.03-.08-.06-.13-.08-.03,0-.08-.02-.11-.02s-.06.02-.09.03c-.02,0-.02.02-.03.02,0,.03-.02.05-.02.06v.06h.17c.06-.02.13-.03.19-.05.02,0,.03,0,.05-.02h0ZM57.2,86.02l-.11.7-.68-.24.13-.7.67.24ZM52.7,84.99c-.33-.35-.68-.68-1.06-.95-.03.11-.09.22-.19.24-.11.03-.36-.14-.46-.21-.17-.13-.41-.32-.46-.55-.05-.21.13-.63.21-.82l.05-.1.08.05c.19.1.38.19.55.32.16.13.32.25.46.4.17.14.36.3.52.48.14.16.29.33.41.51.02-.06.02-.11.02-.14,0-.13-.03-.25-.06-.36-.05-.25-.13-.48-.24-.7-.05-.11-.17-.33-.19-.46-.05-.22.06-.46.19-.65l.06-.1.08.1c.13.16.32.3.47.43l.08.05-.05.06c-.03.08-.09.19-.09.27-.02.13.03.32.06.44.05.24.13.59.13.84,0,.21-.06.46-.11.67.16.25.33.55.38.82.05.19.05.41-.08.57-.16.17-.48.27-.71.32-.25.06-.43.03-.55-.03-.24-.16-.25-.51-.32-.76.16-.05.27-.06.35-.09.22-.08.25-.19.48-.62h0ZM53.08,85.44s-.03-.05-.08-.11l-.03-.03c-.03.11-.09.19-.14.25.03,0,.06-.02.09-.02.06-.02.09-.03.13-.03.02-.02.03-.03.03-.06h0ZM42.71,84.74l-.35.59-.54-.44.36-.62.52.48ZM43.78,86.96c-.02.43-.16.79-.46,1.09-.3.28-.67.41-1.09.4-.29,0-.55-.08-.78-.29-.21-.19-.3-.44-.3-.71.02-.22.03-.44.11-.65.08-.25.25-.52.38-.76.06-.1.29-.43.3-.14,0,.11-.02.19-.05.28-.08.22-.24.4-.25.7,0,.16.06.28.21.4.16.13.36.17.57.17.22.02.44-.03.65-.13.13-.06.3-.16.32-.33,0-.14-.14-.36-.22-.49-.1-.13-.27-.38-.27-.54.02-.22.17-.52.29-.71l.08-.13.08.13c.33.51.46,1.11.44,1.71h0ZM37.68,85.75c-.03.33-.19.76-.41,1.01-.14.14-.21.16-.19-.02.02-.08.03-.16.05-.25.05-.43.08-.87.06-1.31,0-.27-.02-.54-.02-.79,0-.17-.02-.51.02-.66.02-.19.49-.55.65-.7l-.02.22c-.03.43-.05.89-.06,1.31,0,.4-.02.81-.08,1.19h0ZM56.86,85.15c-.16.17-1.12.44-1.33.43-.19,0-.38-.03-.52-.17-.17-.19-.33-.52-.43-.78-.16-.36-.33-.76-.54-1.11-.06-.11-.17-.28-.22-.41-.03-.11-.03-.24-.02-.35.03-.13.09-.29.14-.4l.06-.19.09.17c.17.33.33.68.49,1.03.08.19.17.38.27.59.1.16.19.43.35.54.09.06.22.08.33.1.14,0,1.17-.27,1.13-.41-.03-.08-.36-.21-.43-.4-.05-.14.02-.71.03-.86l.02-.21.13.16c.24.25.52.63.63.95.11.28.16.62.08.9-.05.17-.13.32-.27.41h0ZM48.77,86.86c-.03.22-.16.4-.41.41-.28.03-.67-.3-.9-.54-.08.19-.21.38-.41.43-.54.13-1.46.24-1.98.05-.17-.06-.36-.16-.44-.33-.13-.24-.16-.6-.19-.87-.05-.44-.08-.98-.17-1.43-.03-.13-.08-.32-.09-.44,0-.13.03-.24.09-.35.06-.11.17-.24.25-.33l.13-.16.03.19c.06.36.11.76.16,1.12.02.22.05.43.09.65.02.19.05.67.16.81.08.09.19.16.28.19.46.19,1.11.08,1.57-.03.27-.06.43-.32.54-.54.05-.13.11-.29.19-.38.08-.08.16-.13.27-.13.17-.02.35.17.44.3.08.13.21.3.32.41.27.22.92.05,1.22,0,.05-.02.38-.09.38-.16-.05-.14-.4-.44-.44-.67-.03-.14.11-.7.14-.84l.05-.21.11.17c.21.3.49.89.55,1.24.06.3.08.62-.05.9-.19.44-1.39.74-1.89.52h0ZM47.78,86.02c.09.09.3.25.35.29v-.09c-.02-.14-.05-.3-.11-.44-.02-.02-.06-.09-.08-.11-.03.02-.06.11-.08.14-.03.08-.06.14-.08.22h0ZM72.99,71.75l.21.65-.7.1-.22-.67.71-.08ZM50.37,87.89l-.22.6-.62-.36.25-.65.55.35.24-.6.6.36-.24.65-.57-.35ZM62.82,80.48l-.06.63-.68-.21.08-.68.63.19.08-.63.67.21-.06.68-.65-.19ZM36.44,81.59l.25,1.28c-.08-.02-.22-.19-.25-.16-.08.06-.08.17-.09.33-.02.13-.02.27-.03.38h0v.06h0v.02h0v.02h0v.02h0v.02h0v.02h0c0,.14-.03.63-.03.76-.02.33-.02.71-.08,1.05-.05.3-.14.59-.36.81-.16.17-.36.27-.6.24-.22-.03-.46-.03-.65-.13-.13-.08-.22-.17-.3-.3-.08-.14-.14-.27-.22-.4l-.41.25c-.55.35-2.09-.19-2.66-.46-.17-.08-.32-.17-.4-.36-.05-.13-.06-.29-.05-.44-.14.11-.3.21-.44.24-.32.08-1.06-.14-1.39-.4,0,.03-.02.05-.02.06-.06.19-.17.38-.32.52-.13.11-.27.17-.43.11-.22-.08-.32-.3-.36-.51-.06-.24-.05-.46.02-.67-.16,0-.33.05-.4.21-.06.17-.1.41-.14.59-.11.71-.21,1.46-.71,1.82l.03-.17c.05-.33.1-.65.14-.98.08-.46.19-.98.35-1.43.09-.24.22-.51.43-.68.19-.17.46-.27.71-.33.06-.02.17-.03.24-.06.05-.03.11-.09.14-.14l.09-.1.06.11c.06.16.14.32.24.48.3.49.73.62,1.28.74.35.09.51-.16.6-.48.1-.32.17-.68.25-1.01.06-.27.13-.6.21-.87.11-.35.71-.84.71-.73,0,.22-.21,1-.27,1.24-.11.48-.25.97-.33,1.43-.05.27-.09.65.13.84.36.32,1.52.57,2.01.67.09.02.19.02.27,0,.03-.29-.13-.25-.29-.44.22-.54.49-.82,1.12-.68.22.05.4.16.54.35.13.17.16.38.11.59-.06.22-.21.38-.4.46.03.03.06.05.11.05.17.05.35.08.54.1.05.02.16.03.21,0,.05-.03.08-.14.09-.21.05-.35.06-1.2.06-1.57v-.25h0v-1.25l.68-.62ZM23.1,79.7c-.11.32-.24.68-.41.98-.14.25-.33.49-.6.62-.49.25-1.19-.1-1.3-.65-.03-.14-.06-.28-.09-.44l-.46.11c-.51.11-1.71-.63-1.82-1.08-.17.13-.36.17-.55.03-.24-.17-.3-.7-.33-1.03-.25.08-.49.02-.73-.11-.59-.3-1.92-1.84-2.08-2.49-.03-.11-.03-.22,0-.35-.16.19-.32.38-.48.55-.3.3-.65.54-1.08.55-.4.02-.76-.16-1.05-.44-.43-.44-.6-1.11-.14-1.57.35-.36,1.24-.76,1.7-.76.16-.02.19.05.09.09-.24.14-.59.24-.87.41-1.09.65.6,1.95,1.11,1.43.59-.6,1.7-2.06,2.27-2.55.14-.08.74-.28.76-.19,0,.03-.03.08-.11.17-.09.11-.19.22-.3.33-.46.51-.62.68-1.01,1.24-.17.24-.13.51-.03.76.25.67.98,1.38,1.51,1.87.43.41.57.55,1.16.29.11-.06.27-.13.4-.14.11-.02.21,0,.29.06.14.11.14.38.13.54-.02.16-.03.4-.02.57.03.3,1.12,1.01,1.46,1.08.02-.22-.11-.32-.19-.48.36-.43.76-.67,1.33-.32.19.11.33.28.4.51.06.21.03.41-.09.6-.11.19-.3.28-.51.3-.02.16.49.44.68.35.05-.02.11-.11.14-.16.3-.54.82-2.11,1.03-2.73l.82-.36-.16,1.31c-.06-.05-.14-.25-.19-.24-.08.03-.11.13-.19.28-.08.17-.38.86-.46,1.03h0ZM18.25,77.94c.02.14.06.41.08.44.02,0,.05-.05.05-.06.09-.11.19-.25.22-.4,0-.03.02-.13.02-.14-.03,0-.13.05-.16.05-.06.05-.14.08-.21.11h0ZM24.08,81.38c-.16.27-.44.63-.74.78-.17.1-.25.08-.17-.08.05-.06.09-.13.13-.21.21-.4.38-.79.54-1.22.08-.24.17-.49.25-.74.06-.16.17-.48.25-.62.09-.16.65-.33.86-.41l-.09.19c-.19.4-.35.81-.52,1.22-.14.36-.3.74-.49,1.09h0ZM39.2,86.01c-.02-.11-.08-.19-.21-.21-.02-.02-.05-.02-.08,0-.02,0-.05.02-.06.02,0,.02-.02.03-.03.05,0,0,0,.02-.02.02,0,.09.16.13.22.13.06.02.13,0,.17,0h0ZM39.28,86.67c-.13.08-.27.13-.43.11-.08,0-.16-.03-.22-.08-.06-.03-.13-.08-.16-.14-.05-.06-.08-.13-.1-.21-.02-.06-.03-.16-.02-.24.02-.13.05-.27.11-.4.05-.14.11-.27.19-.38.14-.22.35-.43.63-.38.24.03.35.28.4.49.09.32.09.65.05.98-.11.9-.46,1.71-1.11,1.98-.4.17-.9.13-1.55-.24l-.08-.05c-.68-.51-.24-.35.16-.21.13.05.25.09.33.09.65.08,1.63-.73,1.79-1.35h0ZM53.03,87.32c0,.1-.02.16-.03.19-.02.03-.06.08-.14.13l-.7.4c.02-.1.05-.17.06-.21.03-.05.09-.1.17-.16-.14-.03-.24-.11-.25-.21-.02-.08.03-.22.14-.41.09-.16.19-.24.29-.25.11-.03.19.02.21.13.02.06,0,.14-.03.27-.13-.06-.22-.08-.27-.06-.08.02-.14.06-.19.16.22.13.38.17.49.14.11-.02.21-.05.25-.11h0ZM66.27,76.12c.06.08.08.13.09.16,0,.05-.03.09-.06.17l-.36.73c-.05-.1-.06-.16-.06-.22,0-.05.03-.11.06-.21-.14.03-.25.03-.32-.03s-.09-.21-.11-.44c-.02-.16.02-.29.09-.36.08-.08.16-.08.24,0,.05.03.08.11.13.24-.14.03-.24.06-.27.09-.05.05-.08.13-.06.24.25-.02.41-.06.49-.14.08-.08.13-.16.14-.22h0ZM66.8,76.36c.33.35.65.79.97,1.16.25.3.54.62.74.94.21.3.33.7.4,1.06.05.25,0,.32-.13.14-.08-.09-.13-.17-.19-.27-.25-.35-.52-.7-.82-1.03-.19-.19-.38-.38-.55-.57-.11-.13-.3-.3-.4-.44-.14-.21-.08-.76-.02-.98h0Z"/><polygon class="cls-4" points="72.71 79.07 73.36 79.16 73.34 78.53 74.04 78.64 74.07 79.32 73.4 79.23 73.44 79.86 72.72 79.76 72.71 79.07"/></svg>